<svg aria-hidden="true" style="position: absolute; width: 0; height: 0; overflow: hidden;" version="1.1" xmlns="http://www.w3.org/2000/svg" xmlns:xlink="http://www.w3.org/1999/xlink">
<defs>
<symbol id="icon-video" viewBox="0 0 32 32">
<path d="M16 0c-8.839 0-16 7.161-16 16s7.161 16 16 16c8.839 0 16-7.161 16-16s-7.161-16-16-16zM23.464 17.548l-11.355 6.516c-1.019 0.568-2.303-0.161-2.303-1.355v-13.419c0-1.187 1.277-1.923 2.303-1.355l11.355 6.903c1.058 0.594 1.058 2.123 0 2.71z"></path>
</symbol>
<symbol id="icon-basket" viewBox="0 0 32 32">
<path fill="#fff" style="fill: var(--color1, #fff)" d="M32 12.546v1.091c0 0.904-0.597 1.636-1.333 1.636h-0.444l-1.451 12.463c-0.188 1.612-1.313 2.81-2.64 2.81h-20.263c-1.327 0-2.452-1.198-2.64-2.81l-1.451-12.463h-0.444c-0.736 0-1.333-0.733-1.333-1.636v-1.091c0-0.904 0.597-1.636 1.333-1.636h3.741l5.932-10.011c0.578-0.974 1.689-1.19 2.483-0.481s0.97 2.073 0.392 3.048l-4.411 7.444h13.058l-4.411-7.444c-0.578-0.974-0.402-2.339 0.392-3.048s1.906-0.493 2.483 0.481l5.932 10.011h3.741c0.736 0 1.333 0.733 1.333 1.636zM17.333 24.546v-7.636c0-0.904-0.597-1.636-1.333-1.636s-1.333 0.733-1.333 1.636v7.636c0 0.904 0.597 1.636 1.333 1.636s1.333-0.733 1.333-1.636zM23.556 24.546v-7.636c0-0.904-0.597-1.636-1.333-1.636s-1.333 0.733-1.333 1.636v7.636c0 0.904 0.597 1.636 1.333 1.636s1.333-0.733 1.333-1.636zM11.111 24.546v-7.636c0-0.904-0.597-1.636-1.333-1.636s-1.333 0.733-1.333 1.636v7.636c0 0.904 0.597 1.636 1.333 1.636s1.333-0.733 1.333-1.636z"></path>
</symbol>
<symbol id="icon-twitter" viewBox="0 0 42 32">
<path d="M37.324 7.772c0.026 0.341 0.026 0.682 0.026 1.023 0 10.403-8.579 22.389-24.258 22.389-4.831 0-9.318-1.291-13.092-3.532 0.686 0.073 1.346 0.097 2.059 0.097 3.986 0 7.655-1.243 10.585-3.362-3.748-0.073-6.889-2.339-7.972-5.457 0.528 0.073 1.056 0.122 1.61 0.122 0.765 0 1.531-0.098 2.244-0.268-3.907-0.731-6.837-3.898-6.837-7.723v-0.097c1.135 0.585 2.455 0.95 3.854 0.999-2.296-1.413-3.801-3.825-3.801-6.554 0-1.462 0.422-2.802 1.161-3.971 4.197 4.775 10.506 7.893 17.58 8.235-0.132-0.585-0.211-1.194-0.211-1.803 0-4.337 3.801-7.869 8.526-7.869 2.455 0 4.672 0.95 6.229 2.485 1.927-0.341 3.775-0.999 5.411-1.9-0.634 1.827-1.98 3.362-3.748 4.337 1.716-0.17 3.379-0.609 4.91-1.218-1.161 1.559-2.613 2.948-4.276 4.069z"></path>
</symbol>
<symbol id="icon-instagram" viewBox="0 0 33 32">
<path d="M16.010 7.474c-4.542 0-8.206 3.512-8.206 7.866s3.664 7.866 8.206 7.866c4.542 0 8.206-3.512 8.206-7.866s-3.664-7.866-8.206-7.866zM16.010 20.454c-2.935 0-5.335-2.293-5.335-5.114s2.393-5.114 5.335-5.114c2.942 0 5.335 2.293 5.335 5.114s-2.4 5.114-5.335 5.114zM26.466 7.152c0 1.020-0.857 1.835-1.914 1.835-1.064 0-1.914-0.822-1.914-1.835s0.857-1.835 1.914-1.835c1.057 0 1.914 0.822 1.914 1.835zM31.901 9.014c-0.121-2.458-0.707-4.635-2.585-6.428-1.871-1.794-4.142-2.355-6.706-2.478-2.643-0.144-10.563-0.144-13.205 0-2.557 0.116-4.828 0.678-6.706 2.471s-2.457 3.971-2.585 6.428c-0.15 2.533-0.15 10.125 0 12.658 0.121 2.458 0.707 4.635 2.585 6.428s4.142 2.355 6.706 2.478c2.642 0.144 10.563 0.144 13.205 0 2.564-0.116 4.835-0.678 6.706-2.478 1.871-1.794 2.457-3.971 2.585-6.428 0.15-2.533 0.15-10.118 0-12.651zM28.487 24.383c-0.557 1.342-1.635 2.375-3.042 2.916-2.107 0.801-7.106 0.616-9.434 0.616s-7.335 0.178-9.434-0.616c-1.4-0.534-2.478-1.568-3.042-2.916-0.836-2.020-0.643-6.812-0.643-9.043s-0.186-7.031 0.643-9.043c0.557-1.342 1.635-2.376 3.042-2.916 2.107-0.801 7.106-0.616 9.434-0.616s7.335-0.178 9.434 0.616c1.4 0.534 2.478 1.568 3.042 2.916 0.836 2.020 0.643 6.812 0.643 9.043s0.193 7.031-0.643 9.043z"></path>
</symbol>
<symbol id="icon-facebook" viewBox="0 0 17 32">
<path d="M16.011 18l0.889-5.791h-5.555v-3.758c0-1.584 0.776-3.129 3.264-3.129h2.525v-4.931c0 0-2.292-0.391-4.483-0.391-4.575 0-7.565 2.774-7.565 7.795v4.414h-5.085v5.791h5.085v14h6.259v-14h4.667z"></path>
</symbol>
<symbol id="icon-arrow" viewBox="0 0 23 32">
<path  d="M21.806 17.179l-14.842 12.36c-1.026 0.854-2.685 0.854-3.7 0l-2.466-2.054c-1.026-0.854-1.026-2.236 0-3.081l10.52-8.761-10.52-8.761c-1.026-0.854-1.026-2.236 0-3.081l2.455-2.072c1.026-0.854 2.685-0.854 3.7 0l14.842 12.36c1.037 0.854 1.037 2.236 0.011 3.090z"></path>
</symbol>
<symbol id="icon-done" viewBox="0 0 24 24">
<path d="M9 16.219l10.594-10.641 1.406 1.406-12 12-5.578-5.578 1.359-1.406z"></path>
</symbol>
</defs>
</svg>
