<svg xmlns="http://www.w3.org/2000/svg" aria-hidden="true" style="position:absolute;width:0;height:0;overflow:hidden"><defs><symbol id="icon-video" viewBox="0 0 32 32"><path fill="#fff" d="M16 0C7.161 0 0 7.161 0 16s7.161 16 16 16 16-7.161 16-16S24.839 0 16 0zm7.464 17.548-11.355 6.516c-1.019.568-2.303-.161-2.303-1.355V9.29c0-1.187 1.277-1.923 2.303-1.355l11.355 6.903c1.058.594 1.058 2.123 0 2.71z" style="fill:var(--color1, #fff)"/></symbol><symbol id="icon-basket" viewBox="0 0 32 32"><path fill="#fff" d="M32 12.546v1.091c0 .904-.597 1.636-1.333 1.636h-.444l-1.451 12.463c-.188 1.612-1.313 2.81-2.64 2.81H5.869c-1.327 0-2.452-1.198-2.64-2.81L1.778 15.273h-.444c-.736 0-1.333-.733-1.333-1.636v-1.091c0-.904.597-1.636 1.333-1.636h3.741L11.007.899c.578-.974 1.689-1.19 2.483-.481s.97 2.073.392 3.048L9.471 10.91h13.058l-4.411-7.444c-.578-.974-.402-2.339.392-3.048s1.906-.493 2.483.481l5.932 10.011h3.741c.736 0 1.333.733 1.333 1.636zm-14.667 12V16.91c0-.904-.597-1.636-1.333-1.636s-1.333.733-1.333 1.636v7.636c0 .904.597 1.636 1.333 1.636s1.333-.733 1.333-1.636zm6.223 0V16.91c0-.904-.597-1.636-1.333-1.636s-1.333.733-1.333 1.636v7.636c0 .904.597 1.636 1.333 1.636s1.333-.733 1.333-1.636zm-12.445 0V16.91c0-.904-.597-1.636-1.333-1.636s-1.333.733-1.333 1.636v7.636c0 .904.597 1.636 1.333 1.636s1.333-.733 1.333-1.636z" style="fill:var(--color1, #fff)"/></symbol><symbol id="icon-twitter" viewBox="0 0 42 32"><path fill="#fff" d="M37.324 7.772c.026.341.026.682.026 1.023 0 10.403-8.579 22.389-24.258 22.389-4.831 0-9.318-1.291-13.092-3.532.686.073 1.346.097 2.059.097 3.986 0 7.655-1.243 10.585-3.362-3.748-.073-6.889-2.339-7.972-5.457.528.073 1.056.122 1.61.122.765 0 1.531-.098 2.244-.268-3.907-.731-6.837-3.898-6.837-7.723v-.097a9.136 9.136 0 0 0 3.854.999C3.247 10.55 1.742 8.138 1.742 5.409c0-1.462.422-2.802 1.161-3.971C7.1 6.213 13.409 9.331 20.483 9.673a8.229 8.229 0 0 1-.211-1.803c0-4.337 3.801-7.869 8.526-7.869 2.455 0 4.672.95 6.229 2.485a17.662 17.662 0 0 0 5.411-1.9c-.634 1.827-1.98 3.362-3.748 4.337a18.212 18.212 0 0 0 4.91-1.218 17.63 17.63 0 0 1-4.276 4.069z" style="fill:var(--color1, #fff)"/></symbol><symbol id="icon-instagram" viewBox="0 0 33 32"><path fill="#fff" d="M16.01 7.474c-4.542 0-8.206 3.512-8.206 7.866s3.664 7.866 8.206 7.866 8.206-3.512 8.206-7.866-3.664-7.866-8.206-7.866zm0 12.98c-2.935 0-5.335-2.293-5.335-5.114s2.393-5.114 5.335-5.114 5.335 2.293 5.335 5.114-2.4 5.114-5.335 5.114zM26.466 7.152c0 1.02-.857 1.835-1.914 1.835-1.064 0-1.914-.822-1.914-1.835s.857-1.835 1.914-1.835 1.914.822 1.914 1.835zm5.435 1.862c-.121-2.458-.707-4.635-2.585-6.428C27.445.792 25.174.231 22.61.108c-2.643-.144-10.563-.144-13.205 0-2.557.116-4.828.678-6.706 2.471S.242 6.55.114 9.007c-.15 2.533-.15 10.125 0 12.658.121 2.458.707 4.635 2.585 6.428s4.142 2.355 6.706 2.478c2.642.144 10.563.144 13.205 0 2.564-.116 4.835-.678 6.706-2.478 1.871-1.794 2.457-3.971 2.585-6.428.15-2.533.15-10.118 0-12.651zm-3.414 15.369c-.557 1.342-1.635 2.375-3.042 2.916-2.107.801-7.106.616-9.434.616s-7.335.178-9.434-.616c-1.4-.534-2.478-1.568-3.042-2.916-.836-2.02-.643-6.812-.643-9.043s-.186-7.031.643-9.043c.557-1.342 1.635-2.376 3.042-2.916 2.107-.801 7.106-.616 9.434-.616s7.335-.178 9.434.616c1.4.534 2.478 1.568 3.042 2.916.836 2.02.643 6.812.643 9.043s.193 7.031-.643 9.043z" style="fill:var(--color1, #fff)"/></symbol><symbol id="icon-facebook" viewBox="0 0 17 32"><path fill="#fff" d="m16.011 18 .889-5.791h-5.555V8.451c0-1.584.776-3.129 3.264-3.129h2.525V.391S14.842 0 12.651 0C8.076 0 5.086 2.774 5.086 7.795v4.414H.001V18h5.085v14h6.259V18h4.667z" style="fill:var(--color1, #fff)"/></symbol></defs></svg>